<?xml version="1.0" encoding="utf-8"?>
<!-- Generator: Adobe Illustrator 23.0.1, SVG Export Plug-In . SVG Version: 6.00 Build 0)  -->
<svg version="1.1" id="Layer_1" xmlns="http://www.w3.org/2000/svg" xmlns:xlink="http://www.w3.org/1999/xlink" x="0px" y="0px"
	 viewBox="0 0 180 60" style="enable-background:new 0 0 180 60;" xml:space="preserve">
<style type="text/css">
	.st0{fill:#81B641;}
	.st1{fill:#010101;}
	.st2{fill:#BDBCC2;}
	.st3{fill:none;}
	.st4{fill:#D2D1D6;}
	.st5{fill:none;stroke:#81B641;stroke-width:0;stroke-linecap:round;stroke-linejoin:round;}
	.st6{fill:#72A341;}
</style>
<g>
	<path class="st0" d="M42.81,24.32c2.01,0.31,2.48,1.51,2.43,3.23c-0.14,4.81,0.18,9.67-0.37,14.43
		c-1.16,10.12-10.39,17.56-20.78,17.2c-10.37-0.37-18.94-8.52-19.45-18.7c-0.23-4.57-0.11-9.16-0.05-13.73
		c0.01-0.66,0.48-1.75,0.96-1.89c1.47-0.44,1.31-1.47,1.27-2.51c-0.23-5.22,0.79-10.03,4.25-14.16c4.74-5.66,12.54-7.84,19.72-5.4
		c6.94,2.36,11.84,9.01,12.01,16.35C42.84,20.79,42.81,22.46,42.81,24.32z M36.79,24.39c0-1.75,0.03-3.34-0.01-4.94
		c-0.2-7.71-7.62-13.26-15.03-11.18c-6.68,1.88-9.94,7.82-8.55,16.11C20.94,24.39,28.71,24.39,36.79,24.39z M34.1,30.66
		c-3.78,3.53-7.41,6.9-11.07,10.32c-1.91-1.77-3.65-3.37-5.51-5.09c-1.42,1.32-2.74,2.55-4.18,3.89c3.29,3.08,6.43,6.03,9.69,9.09
		c5.11-4.79,10.11-9.48,15.22-14.27C36.81,33.23,35.53,32.01,34.1,30.66z"/>
</g>
<g>
	<path class="st1" d="M52.59,27.74c1.5,0.86,3.77,1.62,6.13,1.62c2.96,0,4.61-1.39,4.61-3.46c0-1.92-1.29-3.05-4.5-4.21
		c-4.19-1.49-6.87-3.74-6.87-7.37c0-4.16,3.48-7.29,8.98-7.29c2.75,0,4.76,0.59,6.08,1.25l-1.11,3.74c-0.92-0.48-2.69-1.2-5.07-1.2
		c-2.94,0-4.19,1.57-4.19,3.06c0,1.95,1.47,2.86,4.86,4.16c4.41,1.68,6.53,3.9,6.53,7.54c0,4.08-3.08,7.62-9.62,7.62
		c-2.69,0-5.47-0.76-6.86-1.61L52.59,27.74z"/>
	<path class="st1" d="M86.42,21.53h-9.56v7.45h10.69v3.81H72.22V7.41h14.77v3.81H76.86v6.53h9.56V21.53z"/>
	<path class="st1" d="M109.84,32.04c-1.1,0.55-3.51,1.15-6.59,1.15c-8.05,0-12.96-5.06-12.96-12.79c0-8.34,5.83-13.39,13.59-13.39
		c3.05,0,5.21,0.62,6.15,1.12l-1.01,3.7c-1.18-0.54-2.87-0.99-4.95-0.99c-5.17,0-8.9,3.23-8.9,9.33c0,5.59,3.26,9.14,8.84,9.14
		c1.87,0,3.83-0.37,5.06-0.92L109.84,32.04z"/>
	<path class="st1" d="M118.37,7.41v14.8c0,4.96,2.06,7.27,5.2,7.27c3.34,0,5.35-2.29,5.35-7.27V7.41h4.64v14.5
		c0,7.82-4.02,11.3-10.15,11.3c-5.86,0-9.67-3.29-9.67-11.27V7.41H118.37z"/>
	<path class="st1" d="M138.84,7.76c1.76-0.32,4.34-0.55,7.03-0.55c3.64,0,6.12,0.61,7.83,2.05c1.4,1.16,2.19,2.92,2.19,5.1
		c0,3.27-2.22,5.5-4.62,6.34v0.11c1.84,0.7,2.91,2.45,3.54,4.91c0.81,3.18,1.5,6.09,2.01,7.07h-4.76c-0.39-0.73-1-2.83-1.71-5.99
		c-0.73-3.31-1.93-4.38-4.57-4.44h-2.33v10.43h-4.6V7.76z M143.44,18.96h2.74c3.14,0,5.08-1.66,5.08-4.18
		c0-2.76-1.95-4.06-4.94-4.07c-1.47,0-2.41,0.12-2.88,0.24V18.96z"/>
	<path class="st1" d="M174.47,21.53h-9.57v7.45h10.7v3.81h-15.33V7.41h14.77v3.81H164.9v6.53h9.57V21.53z"/>
</g>
<g>
	<path class="st2" d="M52.81,50.13c0.68,0.39,1.7,0.73,2.77,0.73c1.34,0,2.09-0.63,2.09-1.57c0-0.87-0.58-1.38-2.03-1.9
		c-1.9-0.67-3.11-1.69-3.11-3.33c0-1.88,1.57-3.29,4.06-3.29c1.24,0,2.15,0.26,2.75,0.57l-0.5,1.69c-0.42-0.22-1.21-0.55-2.29-0.55
		c-1.33,0-1.9,0.71-1.9,1.38c0,0.88,0.66,1.29,2.2,1.88c1.99,0.76,2.95,1.76,2.95,3.41c0,1.85-1.39,3.45-4.35,3.45
		c-1.21,0-2.47-0.35-3.1-0.73L52.81,50.13z"/>
	<path class="st2" d="M61.65,50.13c0.68,0.39,1.7,0.73,2.77,0.73c1.34,0,2.09-0.63,2.09-1.57c0-0.87-0.58-1.38-2.03-1.9
		c-1.9-0.67-3.11-1.69-3.11-3.33c0-1.88,1.57-3.29,4.06-3.29c1.24,0,2.15,0.26,2.75,0.57l-0.5,1.69c-0.42-0.22-1.21-0.55-2.29-0.55
		c-1.33,0-1.9,0.71-1.9,1.38c0,0.88,0.66,1.29,2.2,1.88c1.99,0.76,2.95,1.76,2.95,3.41c0,1.85-1.39,3.45-4.35,3.45
		c-1.21,0-2.47-0.35-3.1-0.73L61.65,50.13z"/>
	<path class="st2" d="M70.53,40.95h2.1v9.72h4.72v1.76h-6.82V40.95z"/>
	<path class="st2" d="M88.87,47.33h-4.32v3.37h4.84v1.72h-6.93V40.95h6.68v1.72h-4.58v2.95h4.32V47.33z"/>
	<path class="st2" d="M91.22,52.42V40.95h2.4l2.96,4.92c0.76,1.27,1.42,2.6,1.95,3.85l0.04-0.01c-0.15-1.52-0.19-3-0.19-4.76v-4
		h1.94v11.48h-2.17l-2.99-5.05c-0.73-1.26-1.49-2.66-2.06-3.96l-0.05,0.01c0.08,1.49,0.11,3.01,0.11,4.89v4.11H91.22z"/>
	<path class="st2" d="M110.97,52.08c-0.5,0.25-1.59,0.52-2.98,0.52c-3.64,0-5.86-2.29-5.86-5.78c0-3.77,2.64-6.05,6.14-6.05
		c1.38,0,2.36,0.28,2.78,0.51l-0.45,1.67c-0.54-0.24-1.3-0.45-2.24-0.45c-2.34,0-4.02,1.46-4.02,4.22c0,2.53,1.47,4.13,4,4.13
		c0.85,0,1.73-0.17,2.29-0.42L110.97,52.08z"/>
	<path class="st2" d="M112.74,41.1c0.8-0.15,1.96-0.25,3.18-0.25c1.64,0,2.77,0.28,3.54,0.93c0.63,0.53,0.99,1.32,0.99,2.3
		c0,1.48-1,2.49-2.09,2.87V47c0.83,0.32,1.32,1.11,1.6,2.22c0.36,1.44,0.68,2.75,0.91,3.2h-2.15c-0.18-0.33-0.45-1.28-0.77-2.71
		c-0.33-1.5-0.87-1.98-2.06-2.01h-1.06v4.72h-2.08V41.1z M114.82,46.17h1.24c1.42,0,2.3-0.75,2.3-1.89c0-1.25-0.88-1.83-2.24-1.84
		c-0.67,0-1.09,0.05-1.3,0.11V46.17z"/>
	<path class="st2" d="M124.78,52.42v-4.78l-3.63-6.7h2.4l1.37,2.94c0.39,0.84,0.69,1.5,1,2.27h0.03c0.28-0.73,0.61-1.44,0.99-2.28
		l1.38-2.94h2.36l-3.81,6.64v4.83H124.78z"/>
	<path class="st2" d="M131.75,41.09c0.76-0.13,1.8-0.24,3.21-0.24c1.53,0,2.65,0.32,3.38,0.94c0.68,0.56,1.12,1.46,1.12,2.54
		c0,1.09-0.34,1.98-0.98,2.6c-0.84,0.84-2.14,1.24-3.63,1.24c-0.39,0-0.74-0.02-1.03-0.08v4.33h-2.08V41.09z M133.83,46.44
		c0.27,0.07,0.6,0.1,1.03,0.1c1.57,0,2.52-0.78,2.52-2.13c0-1.26-0.89-1.94-2.34-1.94c-0.58,0-0.99,0.05-1.21,0.1V46.44z"/>
	<path class="st2" d="M143.47,42.71h-3.28v-1.76h8.68v1.76h-3.31v9.71h-2.1V42.71z"/>
	<path class="st2" d="M152.3,40.95v11.48h-2.1V40.95H152.3z"/>
	<path class="st2" d="M164.89,46.57c0,3.84-2.33,6.04-5.49,6.04c-3.24,0-5.29-2.48-5.29-5.84c0-3.52,2.23-6.01,5.46-6.01
		C162.92,40.76,164.89,43.29,164.89,46.57z M156.32,46.73c0,2.34,1.18,4.2,3.19,4.2c2.02,0,3.17-1.88,3.17-4.29
		c0-2.17-1.07-4.21-3.17-4.21C157.43,42.44,156.32,44.37,156.32,46.73z"/>
	<path class="st2" d="M166.69,52.42V40.95h2.4l2.96,4.92c0.76,1.27,1.42,2.6,1.95,3.85l0.04-0.01c-0.15-1.52-0.19-3-0.19-4.76v-4
		h1.94v11.48h-2.17l-2.99-5.05c-0.73-1.26-1.49-2.66-2.06-3.96l-0.05,0.01c0.08,1.49,0.11,3.01,0.11,4.89v4.11H166.69z"/>
</g>
<g>
	<path class="st3" d="M23.03,40.98c-1.91-1.77-3.65-3.37-5.51-5.09c-1.42,1.32-2.74,2.55-4.18,3.89c3.29,3.08,6.43,6.03,9.69,9.09
		c5.11-4.79,10.11-9.48,15.22-14.27c-1.44-1.36-2.72-2.58-4.15-3.93C30.32,34.19,26.7,37.56,23.03,40.98z"/>
</g>
<g>
	<path class="st4" d="M42.8,19.13c-0.18-7.34-5.07-13.99-12.01-16.35c-7.18-2.44-14.98-0.27-19.72,5.4
		c-3.46,4.13-4.48,8.94-4.25,14.16c0.03,0.77,0.13,1.53-0.42,2.05h6.79c-1.39-8.29,1.88-14.24,8.55-16.11
		c7.42-2.08,14.84,3.47,15.03,11.18c0.04,1.59,0.01,3.19,0.01,4.94h6.31c-0.1-0.02-0.19-0.05-0.29-0.07
		C42.81,22.46,42.84,20.79,42.8,19.13z"/>
</g>
<path class="st5" d="M24.75,24.39c3.96,0,7.96,0,12.04,0h6.31c1.75,0.38,2.19,1.54,2.14,3.16c-0.14,4.81,0.18,9.67-0.37,14.43
	c-1.13,9.91-10,17.23-20.12,17.19"/>
<path class="st5" d="M24.75,39.38c3.08-2.87,6.16-5.74,9.35-8.72c1.43,1.35,2.71,2.57,4.15,3.93c-4.54,4.25-8.99,8.43-13.5,12.66"/>
<path class="st5" d="M24.75,24.39c-3.88,0-7.72,0-11.56,0H6.4c-0.19,0.19-0.46,0.35-0.85,0.46c-0.48,0.14-0.95,1.23-0.96,1.89
	c-0.07,4.58-0.18,9.17,0.05,13.73c0.51,10.18,9.09,18.33,19.45,18.7c0.22,0.01,0.44-0.01,0.66-0.01"/>
<path class="st5" d="M24.75,39.38c-0.57,0.53-1.15,1.07-1.72,1.6c-1.91-1.77-3.65-3.37-5.51-5.09c-1.42,1.32-2.74,2.55-4.18,3.89
	c3.29,3.08,6.43,6.03,9.69,9.09c0.58-0.54,1.15-1.08,1.72-1.61"/>
<line class="st5" x1="24.75" y1="24.39" x2="24.75" y2="39.38"/>
<line class="st5" x1="24.75" y1="59.17" x2="24.75" y2="47.25"/>
<path class="st6" d="M45.18,27.56c0.05-1.62-0.39-2.78-2.14-3.16h-6.31c-4.04,0-8,0-11.91,0v14.87c3.04-2.84,6.08-5.67,9.23-8.6
	c1.43,1.35,2.71,2.57,4.15,3.93c-4.5,4.22-8.91,8.36-13.38,12.54v12.03c10.07-0.02,18.87-7.32,20-17.19
	C45.36,37.22,45.04,32.37,45.18,27.56z"/>
</svg>
